<svg width="670" height="598" viewBox="0 0 670 598" fill="none" xmlns="http://www.w3.org/2000/svg">
<g clip-path="url(#clip0)">
<path d="M646.943 192.246C646.858 191.947 646.757 191.653 646.642 191.364C646.642 191.241 646.575 191.096 646.519 190.973C645.999 189.965 645.329 189.042 644.531 188.237C644.352 188.047 644.129 187.913 643.939 187.734C643.167 187.049 642.307 186.471 641.382 186.014C641.047 185.858 640.734 185.702 640.388 185.579C639.156 185.089 637.848 184.824 636.524 184.797H177.321L174.384 181.134L318.469 135.894L320.222 135.347L322.802 134.543L461.281 91.056L490.663 81.8315L534.15 68.1846L639.874 35.0056C645.758 33.1559 649.027 26.8867 647.178 21.0027V21.0013L620.42 -64.2413C620.353 -64.4423 620.197 -64.5763 620.118 -64.7773C619.75 -65.7601 619.242 -66.6856 618.611 -67.5246C618.41 -67.7926 618.253 -68.083 618.03 -68.3287C617.959 -68.4375 617.879 -68.5422 617.796 -68.6413C617.012 -69.4468 616.108 -70.1252 615.115 -70.6515C614.858 -70.7967 614.568 -70.8637 614.3 -70.9866C613.389 -71.397 612.428 -71.6859 611.441 -71.8465C611.061 -71.9023 610.715 -71.947 610.324 -71.9693C609.002 -72.0684 607.675 -71.9246 606.405 -71.5449L294.336 26.4176L265.456 35.4858L215.872 51.0535L74.4338 95.456H33.4709C27.3035 95.456 22.3032 100.456 22.3032 106.624V564.497C22.3032 583 37.3028 598 55.8062 598H614.188C632.692 598 647.691 583 647.691 564.497V195.965C647.691 195.753 647.58 195.574 647.568 195.362C647.51 194.298 647.299 193.248 646.943 192.246ZM614.188 207.132L563.934 274.138H502.512L552.766 207.132H614.188ZM524.847 207.132L474.593 274.138H413.171L463.425 207.132H524.847ZM435.506 207.132L385.252 274.138H323.83L374.084 207.132H435.506ZM346.165 207.132L295.911 274.138H234.488L284.743 207.132H346.165ZM256.824 207.132L206.569 274.138H200.986V218.3C200.987 215.764 200.124 213.301 198.54 211.32L195.301 207.278L256.824 207.132ZM609.141 -25.5454L622.542 17.0815L590.558 27.11L609.141 -25.5454ZM551.114 -30.7607L591.853 -43.5365L563.934 35.4299L526.757 47.1001L505.326 53.8007L533.245 -25.1769L551.114 -30.7607ZM455.161 -0.630391L506.555 -16.7788L478.636 62.1988L420.039 80.5919L447.958 1.60314L455.161 -0.630391ZM421.357 9.97887L393.438 88.9453L334.852 107.338L362.771 28.372L421.357 9.97887ZM277.517 55.1632L336.114 36.7365L308.195 115.748L249.598 134.141L277.517 55.1632ZM250.938 63.4607L223.019 142.427L186.925 153.773L164.423 160.831L192.342 81.8538L250.938 63.4607ZM165.595 90.2519L146.03 145.71L114.514 106.289L165.595 90.2519ZM44.6385 117.791H95.1163L146.744 182.34L163.205 202.9L171.023 212.705L172.374 214.391L178.583 222.142V274.138H44.6385V117.791ZM625.356 564.497C625.356 570.664 620.356 575.665 614.188 575.665H55.8062C49.6388 575.665 44.6385 570.664 44.6385 564.497V296.474H625.356V564.497ZM625.356 274.138H591.853L625.356 229.468V274.138Z" fill="#E5E5E5"/>
<path d="M89.3091 229.468H66.9738V251.803H89.3091V229.468Z" fill="#E5E5E5"/>
<path d="M89.3091 140.127H66.9738V162.462H89.3091V140.127Z" fill="#E5E5E5"/>
<path d="M156.315 229.468H133.98V251.803H156.315V229.468Z" fill="#E5E5E5"/>
<path d="M580.685 363.479H89.3091V385.815H580.685V363.479Z" fill="#E5E5E5"/>
<path d="M89.3091 452.821V475.156H234.488V542.162H256.824V475.156H413.171V542.162H435.506V475.156H580.685V452.821H89.3091Z" fill="#E5E5E5"/>
</g>
<defs>
<clipPath id="clip0">
<rect width="670" height="670" fill="white" transform="translate(0 -72)"/>
</clipPath>
</defs>
</svg>
