<svg width="209" height="35" viewBox="0 0 209 35" fill="none" xmlns="http://www.w3.org/2000/svg">
<path d="M32 30.593L22.5 25.5316V18.656L32 13.5946V30.593Z" fill="#340D66"/>
<path d="M18.2812 13.5938C21.6467 13.5938 24.375 10.8655 24.375 7.5C24.375 4.13451 21.6467 1.40625 18.2812 1.40625C14.9158 1.40625 12.1875 4.13451 12.1875 7.5C12.1875 10.8655 14.9158 13.5938 18.2812 13.5938Z" fill="#93B7C0"/>
<path d="M6.09375 13.5938C9.45924 13.5938 12.1875 10.8655 12.1875 7.5C12.1875 4.13451 9.45924 1.40625 6.09375 1.40625C2.72826 1.40625 0 4.13451 0 7.5C0 10.8655 2.72826 13.5938 6.09375 13.5938Z" fill="#ACD5DF"/>
<path d="M24.375 13.5938H12.1875L4.6875 22.1562L12.1875 30.5938H24.375V13.5938Z" fill="#373E9F"/>
<path d="M0 13.5938H12.1875V30.5938H0V13.5938Z" fill="#3857BC"/>
<path d="M20.625 17.3438H12.1875L8.4375 22.0938L12.1875 26.8438H20.625V17.3438Z" fill="#4FDBFF"/>
<path d="M3.75 17.3438H12.1875V26.8438H3.75V17.3438Z" fill="#8AE7FF"/>
<path d="M49.1367 16.3203L49.2188 17.6445C50.1094 16.6055 51.3281 16.0859 52.875 16.0859C54.5703 16.0859 55.7305 16.7344 56.3555 18.0312C57.2773 16.7344 58.5742 16.0859 60.2461 16.0859C61.6445 16.0859 62.6836 16.4727 63.3633 17.2461C64.0508 18.0195 64.4023 19.1602 64.418 20.668V29H61.5703V20.75C61.5703 19.9453 61.3945 19.3555 61.043 18.9805C60.6914 18.6055 60.1094 18.418 59.2969 18.418C58.6484 18.418 58.1172 18.5938 57.7031 18.9453C57.2969 19.2891 57.0117 19.7422 56.8477 20.3047L56.8594 29H54.0117V20.6562C53.9727 19.1641 53.2109 18.418 51.7266 18.418C50.5859 18.418 49.7773 18.8828 49.3008 19.8125V29H46.4531V16.3203H49.1367ZM66.8086 22.543C66.8086 21.3008 67.0547 20.1836 67.5469 19.1914C68.0391 18.1914 68.7305 17.4258 69.6211 16.8945C70.5117 16.3555 71.5352 16.0859 72.6914 16.0859C74.4023 16.0859 75.7891 16.6367 76.8516 17.7383C77.9219 18.8398 78.5 20.3008 78.5859 22.1211L78.5977 22.7891C78.5977 24.0391 78.3555 25.1562 77.8711 26.1406C77.3945 27.125 76.707 27.8867 75.8086 28.4258C74.918 28.9648 73.8867 29.2344 72.7148 29.2344C70.9258 29.2344 69.4922 28.6406 68.4141 27.4531C67.3438 26.2578 66.8086 24.668 66.8086 22.6836V22.543ZM69.6562 22.7891C69.6562 24.0938 69.9258 25.1172 70.4648 25.8594C71.0039 26.5938 71.7539 26.9609 72.7148 26.9609C73.6758 26.9609 74.4219 26.5859 74.9531 25.8359C75.4922 25.0859 75.7617 23.9883 75.7617 22.543C75.7617 21.2617 75.4844 20.2461 74.9297 19.4961C74.3828 18.7461 73.6367 18.3711 72.6914 18.3711C71.7617 18.3711 71.0234 18.7422 70.4766 19.4844C69.9297 20.2188 69.6562 21.3203 69.6562 22.7891ZM85.2891 25.3906L87.9727 16.3203H90.9141L86.5195 29H84.0469L79.6172 16.3203H82.5703L85.2891 25.3906ZM95.7305 29H92.8828V16.3203H95.7305V29ZM92.707 13.0273C92.707 12.5898 92.8438 12.2266 93.1172 11.9375C93.3984 11.6484 93.7969 11.5039 94.3125 11.5039C94.8281 11.5039 95.2266 11.6484 95.5078 11.9375C95.7891 12.2266 95.9297 12.5898 95.9297 13.0273C95.9297 13.457 95.7891 13.8164 95.5078 14.1055C95.2266 14.3867 94.8281 14.5273 94.3125 14.5273C93.7969 14.5273 93.3984 14.3867 93.1172 14.1055C92.8438 13.8164 92.707 13.457 92.707 13.0273ZM104.426 29.2344C102.621 29.2344 101.156 28.668 100.031 27.5352C98.9141 26.3945 98.3555 24.8789 98.3555 22.9883V22.6367C98.3555 21.3711 98.5977 20.2422 99.082 19.25C99.5742 18.25 100.262 17.4727 101.145 16.918C102.027 16.3633 103.012 16.0859 104.098 16.0859C105.824 16.0859 107.156 16.6367 108.094 17.7383C109.039 18.8398 109.512 20.3984 109.512 22.4141V23.5625H101.227C101.312 24.6094 101.66 25.4375 102.27 26.0469C102.887 26.6562 103.66 26.9609 104.59 26.9609C105.895 26.9609 106.957 26.4336 107.777 25.3789L109.312 26.8438C108.805 27.6016 108.125 28.1914 107.273 28.6133C106.43 29.0273 105.48 29.2344 104.426 29.2344ZM104.086 18.3711C103.305 18.3711 102.672 18.6445 102.188 19.1914C101.711 19.7383 101.406 20.5 101.273 21.4766H106.699V21.2656C106.637 20.3125 106.383 19.5938 105.938 19.1094C105.492 18.6172 104.875 18.3711 104.086 18.3711Z" fill="#737380"/>
<path d="M121.055 31.2383H110.309V29H121.055V31.2383ZM128.145 29.2344C126.34 29.2344 124.875 28.668 123.75 27.5352C122.633 26.3945 122.074 24.8789 122.074 22.9883V22.6367C122.074 21.3711 122.316 20.2422 122.801 19.25C123.293 18.25 123.98 17.4727 124.863 16.918C125.746 16.3633 126.73 16.0859 127.816 16.0859C129.543 16.0859 130.875 16.6367 131.812 17.7383C132.758 18.8398 133.23 20.3984 133.23 22.4141V23.5625H124.945C125.031 24.6094 125.379 25.4375 125.988 26.0469C126.605 26.6562 127.379 26.9609 128.309 26.9609C129.613 26.9609 130.676 26.4336 131.496 25.3789L133.031 26.8438C132.523 27.6016 131.844 28.1914 130.992 28.6133C130.148 29.0273 129.199 29.2344 128.145 29.2344ZM127.805 18.3711C127.023 18.3711 126.391 18.6445 125.906 19.1914C125.43 19.7383 125.125 20.5 124.992 21.4766H130.418V21.2656C130.355 20.3125 130.102 19.5938 129.656 19.1094C129.211 18.6172 128.594 18.3711 127.805 18.3711ZM140.004 20.4922L142.418 16.3203H145.582L141.703 22.5664L145.711 29H142.57L140.039 24.6641L137.52 29H134.355L138.363 22.5664L134.496 16.3203H137.637L140.004 20.4922ZM158.625 22.7891C158.625 24.75 158.18 26.3164 157.289 27.4883C156.398 28.6523 155.203 29.2344 153.703 29.2344C152.312 29.2344 151.199 28.7773 150.363 27.8633V33.875H147.516V16.3203H150.141L150.258 17.6094C151.094 16.5938 152.23 16.0859 153.668 16.0859C155.215 16.0859 156.426 16.6641 157.301 17.8203C158.184 18.9688 158.625 20.5664 158.625 22.6133V22.7891ZM155.789 22.543C155.789 21.2773 155.535 20.2734 155.027 19.5312C154.527 18.7891 153.809 18.418 152.871 18.418C151.707 18.418 150.871 18.8984 150.363 19.8594V25.4844C150.879 26.4688 151.723 26.9609 152.895 26.9609C153.801 26.9609 154.508 26.5977 155.016 25.8711C155.531 25.1367 155.789 24.0273 155.789 22.543ZM164.074 29H161.227V11H164.074V29ZM166.652 22.543C166.652 21.3008 166.898 20.1836 167.391 19.1914C167.883 18.1914 168.574 17.4258 169.465 16.8945C170.355 16.3555 171.379 16.0859 172.535 16.0859C174.246 16.0859 175.633 16.6367 176.695 17.7383C177.766 18.8398 178.344 20.3008 178.43 22.1211L178.441 22.7891C178.441 24.0391 178.199 25.1562 177.715 26.1406C177.238 27.125 176.551 27.8867 175.652 28.4258C174.762 28.9648 173.73 29.2344 172.559 29.2344C170.77 29.2344 169.336 28.6406 168.258 27.4531C167.188 26.2578 166.652 24.668 166.652 22.6836V22.543ZM169.5 22.7891C169.5 24.0938 169.77 25.1172 170.309 25.8594C170.848 26.5938 171.598 26.9609 172.559 26.9609C173.52 26.9609 174.266 26.5859 174.797 25.8359C175.336 25.0859 175.605 23.9883 175.605 22.543C175.605 21.2617 175.328 20.2461 174.773 19.4961C174.227 18.7461 173.48 18.3711 172.535 18.3711C171.605 18.3711 170.867 18.7422 170.32 19.4844C169.773 20.2188 169.5 21.3203 169.5 22.7891ZM187.488 18.9219C187.113 18.8594 186.727 18.8281 186.328 18.8281C185.023 18.8281 184.145 19.3281 183.691 20.3281V29H180.844V16.3203H183.562L183.633 17.7383C184.32 16.6367 185.273 16.0859 186.492 16.0859C186.898 16.0859 187.234 16.1406 187.5 16.25L187.488 18.9219ZM194.637 29.2344C192.832 29.2344 191.367 28.668 190.242 27.5352C189.125 26.3945 188.566 24.8789 188.566 22.9883V22.6367C188.566 21.3711 188.809 20.2422 189.293 19.25C189.785 18.25 190.473 17.4727 191.355 16.918C192.238 16.3633 193.223 16.0859 194.309 16.0859C196.035 16.0859 197.367 16.6367 198.305 17.7383C199.25 18.8398 199.723 20.3984 199.723 22.4141V23.5625H191.438C191.523 24.6094 191.871 25.4375 192.48 26.0469C193.098 26.6562 193.871 26.9609 194.801 26.9609C196.105 26.9609 197.168 26.4336 197.988 25.3789L199.523 26.8438C199.016 27.6016 198.336 28.1914 197.484 28.6133C196.641 29.0273 195.691 29.2344 194.637 29.2344ZM194.297 18.3711C193.516 18.3711 192.883 18.6445 192.398 19.1914C191.922 19.7383 191.617 20.5 191.484 21.4766H196.91V21.2656C196.848 20.3125 196.594 19.5938 196.148 19.1094C195.703 18.6172 195.086 18.3711 194.297 18.3711ZM208.582 18.9219C208.207 18.8594 207.82 18.8281 207.422 18.8281C206.117 18.8281 205.238 19.3281 204.785 20.3281V29H201.938V16.3203H204.656L204.727 17.7383C205.414 16.6367 206.367 16.0859 207.586 16.0859C207.992 16.0859 208.328 16.1406 208.594 16.25L208.582 18.9219Z" fill="#A8A8B3"/>
</svg>
